<?xml version="1.0" standalone="no"?>
<!DOCTYPE svg PUBLIC "-//W3C//DTD SVG 20010904//EN"
 "http://www.w3.org/TR/2001/REC-SVG-20010904/DTD/svg10.dtd">
<svg version="1.0" xmlns="http://www.w3.org/2000/svg"
 width="209.000000pt" height="210.000000pt" viewBox="0 0 209.000000 210.000000"
 preserveAspectRatio="xMidYMid meet">
<metadata>
Created by potrace 1.16, written by Peter Selinger 2001-2019
</metadata>
<g transform="translate(0.000000,210.000000) scale(0.100000,-0.100000)"
fill="#000000" stroke="none">
<path d="M915 2020 c-321 -36 -608 -236 -752 -525 -125 -249 -134 -542 -26
-802 l29 -68 414 -3 c295 -2 423 1 443 9 64 27 92 125 53 184 -20 30 -72 55
-113 55 -25 0 -32 -9 -70 -90 l-42 -90 -95 0 c-53 0 -96 2 -96 4 0 2 18 42 39
89 l39 85 -45 11 c-112 29 -193 95 -241 200 -22 47 -27 70 -26 141 0 73 4 93
29 143 37 75 95 133 165 166 52 25 65 26 248 29 l194 4 49 106 c27 59 57 124
67 145 l18 39 69 -149 c38 -81 99 -213 137 -291 37 -79 68 -145 68 -147 0 -1
22 -49 49 -106 134 -287 211 -455 211 -462 0 -4 -43 -6 -96 -5 l-96 3 -75 160
c-41 88 -115 248 -165 355 -49 107 -93 198 -97 203 -4 4 -21 -23 -39 -60 -138
-297 -132 -284 -114 -290 142 -47 232 -158 240 -294 7 -122 -40 -225 -132
-288 -81 -56 -124 -61 -498 -61 -186 0 -338 -4 -338 -9 0 -15 168 -149 232
-185 233 -129 509 -156 765 -75 156 49 283 130 404 256 109 114 178 233 225
390 22 74 27 113 31 243 4 142 2 163 -21 255 -48 187 -134 333 -272 465 -206
197 -488 292 -769 260z"/>
<path d="M700 1342 c-143 -71 -82 -272 83 -272 l48 0 65 136 c35 75 64 140 64
145 0 5 -51 9 -112 9 -88 0 -121 -4 -148 -18z"/>
</g>
</svg>
